<svg xmlns="http://www.w3.org/2000/svg" width="1600" height="900" viewBox="0 0 1600 900"><defs><linearGradient id="bg" x2="1" y2="1"><stop stop-color="#172033"/><stop offset=".58" stop-color="#334a72"/><stop offset="1" stop-color="#050914"/></linearGradient><linearGradient id="g" x2="1" y2="1"><stop stop-color="#d9e4ff"/><stop offset=".48" stop-color="#d6aa50"/><stop offset="1" stop-color="#8d6a2e"/></linearGradient><radialGradient id="r"><stop stop-color="#d6aa50" stop-opacity=".3"/><stop offset="1" stop-color="#d6aa50" stop-opacity="0"/></radialGradient><pattern id="q" width="54" height="54" patternUnits="userSpaceOnUse"><path d="M54 0H0V54" fill="none" stroke="#fff" stroke-opacity=".045"/></pattern></defs><rect width="1600" height="900" fill="url(#bg)"/><rect width="1600" height="900" fill="url(#q)"/><ellipse cx="728" cy="438" rx="650" ry="390" fill="url(#r)"/><circle cx="1043" cy="330" r="5" fill="#d9e4ff" opacity=".28"/><circle cx="1160" cy="450" r="7" fill="#d6aa50" opacity=".28"/><circle cx="1043" cy="570" r="9" fill="#d9e4ff" opacity=".28"/><circle cx="911" cy="683" r="5" fill="#d6aa50" opacity=".28"/><circle cx="707" cy="644" r="7" fill="#d9e4ff" opacity=".28"/><circle cx="509" cy="594" r="9" fill="#d6aa50" opacity=".28"/><circle cx="500" cy="450" r="5" fill="#d9e4ff" opacity=".28"/><circle cx="509" cy="306" r="7" fill="#d6aa50" opacity=".28"/><circle cx="707" cy="256" r="9" fill="#d9e4ff" opacity=".28"/><circle cx="911" cy="217" r="5" fill="#d6aa50" opacity=".28"/><rect x="430" y="140" width="740" height="620" rx="74" fill="#fff" opacity=".055" stroke="#fff" stroke-opacity=".12"/><g transform="translate(728 438)" fill="none" stroke="url(#g)" stroke-width="18" stroke-linecap="round" stroke-linejoin="round"><circle cx="0" cy="-155" r="45"/><circle cx="-160" cy="145" r="45"/><circle cx="0" cy="145" r="45"/><circle cx="160" cy="145" r="45"/><path d="M0-110v85M0-25c0 80-160 70-160 125M0-25v125M0-25c0 80 160 70 160 125"/></g><g opacity=".35" stroke="#d9e4ff" stroke-width="3"><path d="M210 210h160M1230 690h160M290 130v110M1310 660v110"/></g></svg>