<svg xmlns="http://www.w3.org/2000/svg" width="1600" height="900" viewBox="0 0 1600 900"><defs><linearGradient id="bg" x2="1" y2="1"><stop stop-color="#0b2430"/><stop offset=".58" stop-color="#14505b"/><stop offset="1" stop-color="#050914"/></linearGradient><linearGradient id="g" x2="1" y2="1"><stop stop-color="#d8f0ec"/><stop offset=".48" stop-color="#d7b35d"/><stop offset="1" stop-color="#8d6a2e"/></linearGradient><radialGradient id="r"><stop stop-color="#d7b35d" stop-opacity=".3"/><stop offset="1" stop-color="#d7b35d" stop-opacity="0"/></radialGradient><pattern id="q" width="54" height="54" patternUnits="userSpaceOnUse"><path d="M54 0H0V54" fill="none" stroke="#fff" stroke-opacity=".045"/></pattern></defs><rect width="1600" height="900" fill="url(#bg)"/><rect width="1600" height="900" fill="url(#q)"/><ellipse cx="746" cy="462" rx="650" ry="390" fill="url(#r)"/><circle cx="659" cy="630" r="5" fill="#d8f0ec" opacity=".28"/><circle cx="476" cy="557" r="7" fill="#d7b35d" opacity=".28"/><circle cx="505" cy="415" r="9" fill="#d8f0ec" opacity=".28"/><circle cx="550" cy="274" r="5" fill="#d7b35d" opacity=".28"/><circle cx="758" cy="248" r="7" fill="#d8f0ec" opacity=".28"/><circle cx="969" cy="234" r="9" fill="#d7b35d" opacity=".28"/><circle cx="1070" cy="361" r="5" fill="#d8f0ec" opacity=".28"/><circle cx="1155" cy="493" r="7" fill="#d7b35d" opacity=".28"/><circle cx="1008" cy="597" r="9" fill="#d8f0ec" opacity=".28"/><circle cx="850" cy="692" r="5" fill="#d7b35d" opacity=".28"/><rect x="430" y="140" width="740" height="620" rx="74" fill="#fff" opacity=".055" stroke="#fff" stroke-opacity=".12"/><g transform="translate(746 462)" fill="none" stroke="url(#g)" stroke-width="18" stroke-linecap="round" stroke-linejoin="round"><path d="M-210 120V-90q100-45 210 10q110-55 210-10v210q-105-48-210 10q-105-58-210-10zM0-80v210"/><circle cx="-115" cy="-175" r="48"/><circle cx="115" cy="-175" r="48"/></g><g opacity=".35" stroke="#d8f0ec" stroke-width="3"><path d="M210 210h160M1230 690h160M290 130v110M1310 660v110"/></g></svg>