<svg xmlns="http://www.w3.org/2000/svg" width="1600" height="900" viewBox="0 0 1600 900"><defs><linearGradient id="bg" x2="1" y2="1"><stop stop-color="#121a30"/><stop offset=".58" stop-color="#233d6b"/><stop offset="1" stop-color="#050914"/></linearGradient><linearGradient id="g" x2="1" y2="1"><stop stop-color="#e7d7aa"/><stop offset=".48" stop-color="#d4a94f"/><stop offset="1" stop-color="#8d6a2e"/></linearGradient><radialGradient id="r"><stop stop-color="#d4a94f" stop-opacity=".3"/><stop offset="1" stop-color="#d4a94f" stop-opacity="0"/></radialGradient><pattern id="q" width="54" height="54" patternUnits="userSpaceOnUse"><path d="M54 0H0V54" fill="none" stroke="#fff" stroke-opacity=".045"/></pattern></defs><rect width="1600" height="900" fill="url(#bg)"/><rect width="1600" height="900" fill="url(#q)"/><ellipse cx="764" cy="426" rx="650" ry="390" fill="url(#r)"/><circle cx="1082" cy="520" r="5" fill="#e7d7aa" opacity=".28"/><circle cx="1001" cy="653" r="7" fill="#d4a94f" opacity=".28"/><circle cx="790" cy="654" r="9" fill="#e7d7aa" opacity=".28"/><circle cx="578" cy="643" r="5" fill="#d4a94f" opacity=".28"/><circle cx="512" cy="506" r="7" fill="#e7d7aa" opacity=".28"/><circle cx="462" cy="366" r="9" fill="#d4a94f" opacity=".28"/><circle cx="632" cy="281" r="5" fill="#e7d7aa" opacity=".28"/><circle cx="813" cy="205" r="7" fill="#d4a94f" opacity=".28"/><circle cx="985" cy="289" r="9" fill="#e7d7aa" opacity=".28"/><circle cx="1146" cy="383" r="5" fill="#d4a94f" opacity=".28"/><rect x="430" y="140" width="740" height="620" rx="74" fill="#fff" opacity=".055" stroke="#fff" stroke-opacity=".12"/><g transform="translate(764 426)" fill="none" stroke="url(#g)" stroke-width="18" stroke-linecap="round" stroke-linejoin="round"><rect x="-185" y="-180" width="370" height="360" rx="36"/><path d="M-95-95h190M-95-20h190M-95 55h90M35 48l42 42 85-105"/></g><g opacity=".35" stroke="#e7d7aa" stroke-width="3"><path d="M210 210h160M1230 690h160M290 130v110M1310 660v110"/></g></svg>