<svg xmlns="http://www.w3.org/2000/svg" viewBox="0 0 1600 900" role="img" aria-labelledby="t d"><title id="t">Rezazadeh Foundation Press</title><desc id="d">Conceptual publisher visual with books, manuscript pages, editorial marks and a restrained academic press identity.</desc><defs><linearGradient id="b" x1="0" y1="0" x2="1" y2="1"><stop stop-color="#05080c"/><stop offset=".58" stop-color="#0c1922"/><stop offset="1" stop-color="#1b130a"/></linearGradient><radialGradient id="g"><stop stop-color="#f4dc9c" stop-opacity=".78"/><stop offset=".42" stop-color="#c99b4d" stop-opacity=".27"/><stop offset="1" stop-color="#c99b4d" stop-opacity="0"/></radialGradient><filter id="s"><feDropShadow dy="16" stdDeviation="18" flood-opacity=".4"/></filter></defs><rect width="1600" height="900" fill="url(#b)"/><circle cx="1250" cy="160" r="260" fill="url(#g)"/><g transform="translate(170 515)" filter="url(#s)"><rect width="560" height="78" rx="14" fill="#15110d"/><rect x="24" y="88" width="600" height="78" rx="14" fill="#21180f"/><rect x="4" y="176" width="540" height="78" rx="14" fill="#0e171e"/><path d="M60 38h350M82 127h400M60 215h320" stroke="#c69d52" stroke-width="6" opacity=".45"/></g><g filter="url(#s)" transform="translate(760 180)"><rect width="560" height="430" rx="26" fill="#efe6d7"/><path d="M72 78h260M72 130h360M72 182h315M72 290h370M72 342h300" stroke="#7f7464" stroke-width="10" stroke-linecap="round" opacity=".34"/><path d="M412 72l58 58-58 58-58-58z" fill="#c99b4d" opacity=".6"/><path d="M390 130h44M412 108v44" stroke="#413521" stroke-width="5"/></g><g transform="translate(1180 590) rotate(-24)" filter="url(#s)"><rect width="34" height="220" rx="12" fill="#b48742"/><path d="M17 220L0 266h34z" fill="#ddc79c"/></g><rect x="1.5" y="1.5" width="1597" height="897" rx="28" fill="none" stroke="#d0a859" stroke-opacity=".22" stroke-width="3"/></svg>