<svg xmlns="http://www.w3.org/2000/svg" viewBox="0 0 1600 900" role="img" aria-labelledby="t d"><title id="t">Student educational services</title><desc id="d">Conceptual student pathway visual connecting learning records, consultation, assessment and development.</desc><defs><linearGradient id="b" x1="0" y1="0" x2="1" y2="1"><stop stop-color="#05090f"/><stop offset=".6" stop-color="#0a1c29"/><stop offset="1" stop-color="#191209"/></linearGradient><radialGradient id="g"><stop stop-color="#f1d998" stop-opacity=".72"/><stop offset=".42" stop-color="#c99b4d" stop-opacity=".27"/><stop offset="1" stop-color="#c99b4d" stop-opacity="0"/></radialGradient><filter id="s"><feDropShadow dy="16" stdDeviation="18" flood-opacity=".4"/></filter></defs><rect width="1600" height="900" fill="url(#b)"/><circle cx="1220" cy="170" r="260" fill="url(#g)"/><g transform="translate(180 210)" filter="url(#s)"><circle cx="210" cy="150" r="105" fill="#111c24" stroke="#c99b4d" stroke-width="7"/><circle cx="210" cy="125" r="45" fill="#d0ad65" opacity=".62"/><path d="M105 285c22-88 77-130 105-130s83 42 105 130" fill="none" stroke="#d0ad65" stroke-width="18" stroke-linecap="round"/><rect x="30" y="360" width="360" height="150" rx="24" fill="#101820" stroke="#8e6e3e" stroke-width="3"/><path d="M80 410h210M80 455h250" stroke="#cda85f" stroke-width="8" stroke-linecap="round" opacity=".5"/></g><path d="M600 640C760 590 810 510 900 430s190-130 330-170" stroke="#d4aa58" stroke-width="36" fill="none" stroke-linecap="round"/><path d="M600 640C760 590 810 510 900 430s190-130 330-170" stroke="#fff0b4" stroke-width="4" fill="none" stroke-dasharray="18 28" opacity=".65"/><g fill="#dfbd6d"><circle cx="760" cy="565" r="12"/><circle cx="900" cy="430" r="12"/><circle cx="1060" cy="325" r="12"/><circle cx="1230" cy="260" r="12"/></g><g transform="translate(970 510)" filter="url(#s)"><rect width="410" height="220" rx="26" fill="#efe5d4"/><path d="M58 62h190M58 108h270M58 154h220" stroke="#817665" stroke-width="9" stroke-linecap="round" opacity=".35"/><circle cx="325" cy="75" r="30" fill="#c99b4d" opacity=".55"/></g><rect x="1.5" y="1.5" width="1597" height="897" rx="28" fill="none" stroke="#d0a859" stroke-opacity=".22" stroke-width="3"/></svg>