<svg xmlns="http://www.w3.org/2000/svg" viewBox="0 0 1600 900" width="1600" height="900" role="img" aria-labelledby="t d"><title id="t">Featured visual for aya-nomre-bala-yani-estedaad</title><desc id="d">Original conceptual editorial visual for Dr. Javad Rezazadeh Yazdeli knowledge guide.</desc><defs><linearGradient id="bg" x1="0" y1="0" x2="1" y2="1"><stop stop-color="#21334f"/><stop offset=".58" stop-color="#4e8d7c"/><stop offset="1" stop-color="#0a1624"/></linearGradient><linearGradient id="gold" x1="0" y1="1" x2="1" y2="0"><stop stop-color="#d5ad5a"/><stop offset="1" stop-color="#fff2bf"/></linearGradient><filter id="glow"><feGaussianBlur stdDeviation="38"/></filter></defs><rect width="1600" height="900" fill="url(#bg)"/><circle cx="427" cy="210" r="277.20000000000005" fill="#d5ad5a" opacity=".13" filter="url(#glow)"/><circle cx="1273.25" cy="718" r="226.8" fill="#fff" opacity=".08" filter="url(#glow)"/><g opacity=".12" stroke="#fff"><path d="M0 80 H1600"/><path d="M0 148 H1600"/><path d="M0 216 H1600"/><path d="M0 284 H1600"/><path d="M0 352 H1600"/><path d="M0 420 H1600"/><path d="M0 488 H1600"/><path d="M0 556 H1600"/><path d="M0 624 H1600"/><path d="M0 692 H1600"/><path d="M0 760 H1600"/><path d="M0 828 H1600"/></g><g transform="rotate(2 800 450)"><g stroke="#d5ad5a" stroke-width="7" opacity=".95"><path d="M340 610 L560 440"/><path d="M560 440 L790 520"/><path d="M560 440 L710 250"/><path d="M790 520 L1060 370"/><path d="M710 250 L1040 205"/><path d="M1060 370 L1290 255"/></g><circle cx="340" cy="610" r="24" fill="#4e8d7c" stroke="#fff" stroke-width="4"/><circle cx="560" cy="440" r="34" fill="#d5ad5a" stroke="#fff" stroke-width="4"/><circle cx="790" cy="520" r="24" fill="#4e8d7c" stroke="#fff" stroke-width="4"/><circle cx="710" cy="250" r="34" fill="#d5ad5a" stroke="#fff" stroke-width="4"/><circle cx="1060" cy="370" r="24" fill="#4e8d7c" stroke="#fff" stroke-width="4"/><circle cx="1040" cy="205" r="34" fill="#d5ad5a" stroke="#fff" stroke-width="4"/><circle cx="1290" cy="255" r="24" fill="#4e8d7c" stroke="#fff" stroke-width="4"/></g><g opacity=".85"><circle cx="132" cy="120" r="8" fill="#d5ad5a"/><circle cx="160" cy="120" r="8" fill="#fff"/><circle cx="188" cy="120" r="8" fill="#d5ad5a"/></g><path d="M108 772 H510" stroke="#d5ad5a" stroke-width="8" stroke-linecap="round" opacity=".9"/><path d="M108 804 H390" stroke="#fff" stroke-width="4" stroke-linecap="round" opacity=".45"/></svg>