<svg xmlns="http://www.w3.org/2000/svg" viewBox="0 0 1600 900" width="1600" height="900" role="img" aria-labelledby="t d"><title id="t">Featured visual for jalase-moshtarak-valed-danesh-amooz</title><desc id="d">Original conceptual editorial visual for Dr. Javad Rezazadeh Yazdeli knowledge guide.</desc><defs><linearGradient id="bg" x1="0" y1="0" x2="1" y2="1"><stop stop-color="#0f2e4f"/><stop offset=".58" stop-color="#3f83c5"/><stop offset="1" stop-color="#0a1624"/></linearGradient><linearGradient id="gold" x1="0" y1="1" x2="1" y2="0"><stop stop-color="#d7b46a"/><stop offset="1" stop-color="#fff2bf"/></linearGradient><filter id="glow"><feGaussianBlur stdDeviation="38"/></filter></defs><rect width="1600" height="900" fill="url(#bg)"/><circle cx="256" cy="362" r="382.8" fill="#d7b46a" opacity=".13" filter="url(#glow)"/><circle cx="1316" cy="687.6" r="313.2" fill="#fff" opacity=".08" filter="url(#glow)"/><g opacity=".12" stroke="#fff"><path d="M0 80 H1600"/><path d="M0 148 H1600"/><path d="M0 216 H1600"/><path d="M0 284 H1600"/><path d="M0 352 H1600"/><path d="M0 420 H1600"/><path d="M0 488 H1600"/><path d="M0 556 H1600"/><path d="M0 624 H1600"/><path d="M0 692 H1600"/><path d="M0 760 H1600"/><path d="M0 828 H1600"/></g><g transform="rotate(1 800 450)"><path d="M220 660 C460 520 570 355 820 330 S1180 230 1370 150" fill="none" stroke="url(#gold)" stroke-width="18" stroke-linecap="round"/><circle cx="250" cy="645" r="42" fill="#d7b46a"/><circle cx="820" cy="330" r="34" fill="#d7b46a"/><path d="M1260 180 l110 -30 -48 104" fill="none" stroke="#d7b46a" stroke-width="18" stroke-linecap="round" stroke-linejoin="round"/></g><g opacity=".85"><circle cx="132" cy="120" r="8" fill="#d7b46a"/><circle cx="160" cy="120" r="8" fill="#fff"/><circle cx="188" cy="120" r="8" fill="#d7b46a"/></g><path d="M108 772 H510" stroke="#d7b46a" stroke-width="8" stroke-linecap="round" opacity=".9"/><path d="M108 804 H390" stroke="#fff" stroke-width="4" stroke-linecap="round" opacity=".45"/></svg>